<svg xmlns="http://www.w3.org/2000/svg" xmlns:xlink="http://www.w3.org/1999/xlink" contentStyleType="text/css" height="673px" preserveAspectRatio="none" style="width:1418px;height:673px;background:#FFFFFF;" version="1.1" viewBox="0 0 1418 673" width="1418px" zoomAndPan="magnify"><title>app</title><defs/><g><text fill="#000000" font-family="sans-serif" font-size="14" font-weight="bold" lengthAdjust="spacing" textLength="29.4902" x="687.4724" y="22.9951">app</text><!--class activity--><g id="elem_activity"><rect codeLine="7" fill="#F1F1F1" height="205.2656" id="activity" rx="2.5" ry="2.5" style="stroke:#181818;stroke-width:0.5;" width="195.8457" x="465.03" y="260.6769"/><text fill="#000000" font-family="sans-serif" font-size="14" lengthAdjust="spacing" textLength="51.6045" x="537.1506" y="278.672">activity</text><line style="stroke:#181818;stroke-width:0.5;" x1="466.03" x2="659.8757" y1="286.9738" y2="286.9738"/><ellipse cx="476.03" cy="300.6222" fill="#000000" rx="3" ry="3" style="stroke:#000000;stroke-width:1.0;"/><text fill="#000000" font-family="sans-serif" font-size="14" lengthAdjust="spacing" textLength="72.0645" x="485.03" y="303.9689">id: integer</text><line style="stroke:#181818;stroke-width:1.0;" x1="466.03" x2="659.8757" y1="311.2706" y2="311.2706"/><text fill="#000000" font-family="sans-serif" font-size="14" lengthAdjust="spacing" textLength="140.9365" x="485.03" y="328.2657">category_id: integer</text><text fill="#000000" font-family="sans-serif" font-size="14" lengthAdjust="spacing" textLength="169.8457" x="485.03" y="344.5626">target_group_id: integer</text><text fill="#000000" font-family="sans-serif" font-size="14" lengthAdjust="spacing" textLength="123.9492" x="485.03" y="360.8595">school_id: integer</text><ellipse cx="476.03" cy="373.8097" fill="#000000" rx="3" ry="3" style="stroke:#000000;stroke-width:1.0;"/><text fill="#000000" font-family="sans-serif" font-size="14" lengthAdjust="spacing" textLength="89.0586" x="485.03" y="377.1564">name: string</text><ellipse cx="476.03" cy="390.1066" fill="#000000" rx="3" ry="3" style="stroke:#000000;stroke-width:1.0;"/><text fill="#000000" font-family="sans-serif" font-size="14" lengthAdjust="spacing" textLength="127.1963" x="485.03" y="393.4532">description: string</text><ellipse cx="476.03" cy="406.4034" fill="#000000" rx="3" ry="3" style="stroke:#000000;stroke-width:1.0;"/><text fill="#000000" font-family="sans-serif" font-size="14" lengthAdjust="spacing" textLength="92.9619" x="485.03" y="409.7501">image: string</text><ellipse cx="476.03" cy="422.7003" fill="#000000" rx="3" ry="3" style="stroke:#000000;stroke-width:1.0;"/><text fill="#000000" font-family="sans-serif" font-size="14" lengthAdjust="spacing" textLength="103.9336" x="485.03" y="426.047">date: datetime</text><ellipse cx="476.03" cy="438.9972" fill="#000000" rx="3" ry="3" style="stroke:#000000;stroke-width:1.0;"/><text fill="#000000" font-family="sans-serif" font-size="14" lengthAdjust="spacing" textLength="94.1309" x="485.03" y="442.3439">price: integer</text><text fill="#000000" font-family="sans-serif" font-size="14" lengthAdjust="spacing" textLength="104.9043" x="485.03" y="458.6407">location: string</text></g><!--class activity_user--><g id="elem_activity_user"><rect codeLine="20" fill="#F1F1F1" height="74.8906" id="activity_user" rx="2.5" ry="2.5" style="stroke:#181818;stroke-width:0.5;" width="156.6689" x="548.62" y="85.0369"/><text fill="#000000" font-family="sans-serif" font-size="14" lengthAdjust="spacing" textLength="89.1406" x="582.3842" y="103.032">activity_user</text><line style="stroke:#181818;stroke-width:0.5;" x1="549.62" x2="704.2889" y1="111.3338" y2="111.3338"/><ellipse cx="559.62" cy="124.9822" fill="#000000" rx="3" ry="3" style="stroke:#000000;stroke-width:1.0;"/><text fill="#000000" font-family="sans-serif" font-size="14" lengthAdjust="spacing" textLength="130.6689" x="568.62" y="128.3289">activity_id: integer</text><ellipse cx="559.62" cy="141.2791" fill="#000000" rx="3" ry="3" style="stroke:#000000;stroke-width:1.0;"/><text fill="#000000" font-family="sans-serif" font-size="14" lengthAdjust="spacing" textLength="109.6006" x="568.62" y="144.6257">user_id: integer</text><line style="stroke:#181818;stroke-width:1.0;" x1="549.62" x2="704.2889" y1="151.9275" y2="151.9275"/></g><!--class category--><g id="elem_category"><rect codeLine="25" fill="#F1F1F1" height="74.8906" id="category" rx="2.5" ry="2.5" style="stroke:#181818;stroke-width:0.5;" width="150" x="308.95" y="558.5369"/><text fill="#000000" font-family="sans-serif" font-size="14" lengthAdjust="spacing" textLength="61.8721" x="353.014" y="576.532">category</text><line style="stroke:#181818;stroke-width:0.5;" x1="309.95" x2="457.95" y1="584.8338" y2="584.8338"/><ellipse cx="319.95" cy="598.4822" fill="#000000" rx="3" ry="3" style="stroke:#000000;stroke-width:1.0;"/><text fill="#000000" font-family="sans-serif" font-size="14" lengthAdjust="spacing" textLength="72.0645" x="328.95" y="601.8289">id: integer</text><line style="stroke:#181818;stroke-width:1.0;" x1="309.95" x2="457.95" y1="609.1306" y2="609.1306"/><ellipse cx="319.95" cy="622.7791" fill="#000000" rx="3" ry="3" style="stroke:#000000;stroke-width:1.0;"/><text fill="#000000" font-family="sans-serif" font-size="14" lengthAdjust="spacing" textLength="89.0586" x="328.95" y="626.1257">name: string</text></g><!--class child--><g id="elem_child"><rect codeLine="30" fill="#F1F1F1" height="123.7813" id="child" rx="2.5" ry="2.5" style="stroke:#181818;stroke-width:0.5;" width="151.2617" x="952.32" y="301.4169"/><text fill="#000000" font-family="sans-serif" font-size="14" lengthAdjust="spacing" textLength="33.2363" x="1011.3327" y="319.412">child</text><line style="stroke:#181818;stroke-width:0.5;" x1="953.32" x2="1102.5817" y1="327.7138" y2="327.7138"/><ellipse cx="963.32" cy="341.3622" fill="#000000" rx="3" ry="3" style="stroke:#000000;stroke-width:1.0;"/><text fill="#000000" font-family="sans-serif" font-size="14" lengthAdjust="spacing" textLength="72.0645" x="972.32" y="344.7089">id: integer</text><line style="stroke:#181818;stroke-width:1.0;" x1="953.32" x2="1102.5817" y1="352.0106" y2="352.0106"/><ellipse cx="963.32" cy="365.6591" fill="#000000" rx="3" ry="3" style="stroke:#000000;stroke-width:1.0;"/><text fill="#000000" font-family="sans-serif" font-size="14" lengthAdjust="spacing" textLength="125.2617" x="972.32" y="369.0057">parent_id: integer</text><ellipse cx="963.32" cy="381.9559" fill="#000000" rx="3" ry="3" style="stroke:#000000;stroke-width:1.0;"/><text fill="#000000" font-family="sans-serif" font-size="14" lengthAdjust="spacing" textLength="89.0586" x="972.32" y="385.3026">name: string</text><ellipse cx="963.32" cy="398.2528" fill="#000000" rx="3" ry="3" style="stroke:#000000;stroke-width:1.0;"/><text fill="#000000" font-family="sans-serif" font-size="14" lengthAdjust="spacing" textLength="84.1094" x="972.32" y="401.5995">class: string</text><ellipse cx="963.32" cy="414.5497" fill="#000000" rx="3" ry="3" style="stroke:#000000;stroke-width:1.0;"/><text fill="#000000" font-family="sans-serif" font-size="14" lengthAdjust="spacing" textLength="75.4346" x="972.32" y="417.8964">age: string</text></g><!--class doctrine_migration_versions--><g id="elem_doctrine_migration_versions"><rect codeLine="38" fill="#F1F1F1" height="91.1875" id="doctrine_migration_versions" rx="2.5" ry="2.5" style="stroke:#181818;stroke-width:0.5;" width="203.9072" x="7" y="76.8969"/><text fill="#000000" font-family="sans-serif" font-size="14" lengthAdjust="spacing" textLength="197.9072" x="10" y="94.892">doctrine_migration_versions</text><line style="stroke:#181818;stroke-width:0.5;" x1="8" x2="209.9072" y1="103.1938" y2="103.1938"/><ellipse cx="18" cy="116.8422" fill="#000000" rx="3" ry="3" style="stroke:#000000;stroke-width:1.0;"/><text fill="#000000" font-family="sans-serif" font-size="14" lengthAdjust="spacing" textLength="100.6318" x="27" y="120.1889">version: string</text><line style="stroke:#181818;stroke-width:1.0;" x1="8" x2="209.9072" y1="127.4906" y2="127.4906"/><text fill="#000000" font-family="sans-serif" font-size="14" lengthAdjust="spacing" textLength="158.5049" x="13" y="144.4857">executed_at: datetime</text><text fill="#000000" font-family="sans-serif" font-size="14" lengthAdjust="spacing" textLength="166.8174" x="13" y="160.7826">execution_time: integer</text></g><!--class messenger_messages--><g id="elem_messenger_messages"><rect codeLine="44" fill="#F1F1F1" height="156.375" id="messenger_messages" rx="2.5" ry="2.5" style="stroke:#181818;stroke-width:0.5;" width="267.3633" x="246.27" y="44.2969"/><text fill="#000000" font-family="sans-serif" font-size="14" lengthAdjust="spacing" textLength="154.793" x="302.5552" y="62.292">messenger_messages</text><line style="stroke:#181818;stroke-width:0.5;" x1="247.27" x2="512.6333" y1="70.5938" y2="70.5938"/><ellipse cx="257.27" cy="84.2422" fill="#000000" rx="3" ry="3" style="stroke:#000000;stroke-width:1.0;"/><text fill="#000000" font-family="sans-serif" font-size="14" lengthAdjust="spacing" textLength="61.8584" x="266.27" y="87.5889">id: bigint</text><line style="stroke:#181818;stroke-width:1.0;" x1="247.27" x2="512.6333" y1="94.8906" y2="94.8906"/><ellipse cx="257.27" cy="108.5391" fill="#000000" rx="3" ry="3" style="stroke:#000000;stroke-width:1.0;"/><text fill="#000000" font-family="sans-serif" font-size="14" lengthAdjust="spacing" textLength="71.668" x="266.27" y="111.8857">body: text</text><ellipse cx="257.27" cy="124.8359" fill="#000000" rx="3" ry="3" style="stroke:#000000;stroke-width:1.0;"/><text fill="#000000" font-family="sans-serif" font-size="14" lengthAdjust="spacing" textLength="93.6592" x="266.27" y="128.1826">headers: text</text><ellipse cx="257.27" cy="141.1328" fill="#000000" rx="3" ry="3" style="stroke:#000000;stroke-width:1.0;"/><text fill="#000000" font-family="sans-serif" font-size="14" lengthAdjust="spacing" textLength="139.918" x="266.27" y="144.4795">queue_name: string</text><ellipse cx="257.27" cy="157.4297" fill="#000000" rx="3" ry="3" style="stroke:#000000;stroke-width:1.0;"/><text fill="#000000" font-family="sans-serif" font-size="14" lengthAdjust="spacing" textLength="229.5645" x="266.27" y="160.7764">created_at: datetime_immutable</text><ellipse cx="257.27" cy="173.7266" fill="#000000" rx="3" ry="3" style="stroke:#000000;stroke-width:1.0;"/><text fill="#000000" font-family="sans-serif" font-size="14" lengthAdjust="spacing" textLength="239.1211" x="266.27" y="177.0732">available_at: datetime_immutable</text><text fill="#000000" font-family="sans-serif" font-size="14" lengthAdjust="spacing" textLength="241.3633" x="266.27" y="193.3701">delivered_at: datetime_immutable</text></g><!--class reset_password_request--><g id="elem_reset_password_request"><rect codeLine="54" fill="#F1F1F1" height="140.0781" id="reset_password_request" rx="2.5" ry="2.5" style="stroke:#181818;stroke-width:0.5;" width="272.9551" x="1138.48" y="293.2669"/><text fill="#000000" font-family="sans-serif" font-size="14" lengthAdjust="spacing" textLength="170.0029" x="1189.9561" y="311.262">reset_password_request</text><line style="stroke:#181818;stroke-width:0.5;" x1="1139.48" x2="1410.4351" y1="319.5638" y2="319.5638"/><ellipse cx="1149.48" cy="333.2122" fill="#000000" rx="3" ry="3" style="stroke:#000000;stroke-width:1.0;"/><text fill="#000000" font-family="sans-serif" font-size="14" lengthAdjust="spacing" textLength="72.0645" x="1158.48" y="336.5589">id: integer</text><line style="stroke:#181818;stroke-width:1.0;" x1="1139.48" x2="1410.4351" y1="343.8606" y2="343.8606"/><ellipse cx="1149.48" cy="357.5091" fill="#000000" rx="3" ry="3" style="stroke:#000000;stroke-width:1.0;"/><text fill="#000000" font-family="sans-serif" font-size="14" lengthAdjust="spacing" textLength="109.6006" x="1158.48" y="360.8557">user_id: integer</text><ellipse cx="1149.48" cy="373.8059" fill="#000000" rx="3" ry="3" style="stroke:#000000;stroke-width:1.0;"/><text fill="#000000" font-family="sans-serif" font-size="14" lengthAdjust="spacing" textLength="105.2734" x="1158.48" y="377.1526">selector: string</text><ellipse cx="1149.48" cy="390.1028" fill="#000000" rx="3" ry="3" style="stroke:#000000;stroke-width:1.0;"/><text fill="#000000" font-family="sans-serif" font-size="14" lengthAdjust="spacing" textLength="147.123" x="1158.48" y="393.4495">hashed_token: string</text><ellipse cx="1149.48" cy="406.3997" fill="#000000" rx="3" ry="3" style="stroke:#000000;stroke-width:1.0;"/><text fill="#000000" font-family="sans-serif" font-size="14" lengthAdjust="spacing" textLength="246.9551" x="1158.48" y="409.7464">requested_at: datetime_immutable</text><ellipse cx="1149.48" cy="422.6966" fill="#000000" rx="3" ry="3" style="stroke:#000000;stroke-width:1.0;"/><text fill="#000000" font-family="sans-serif" font-size="14" lengthAdjust="spacing" textLength="227.2676" x="1158.48" y="426.0432">expires_at: datetime_immutable</text></g><!--class school--><g id="elem_school"><rect codeLine="63" fill="#F1F1F1" height="74.8906" id="school" rx="2.5" ry="2.5" style="stroke:#181818;stroke-width:0.5;" width="150" x="689.95" y="558.5369"/><text fill="#000000" font-family="sans-serif" font-size="14" lengthAdjust="spacing" textLength="44.8848" x="742.5076" y="576.532">school</text><line style="stroke:#181818;stroke-width:0.5;" x1="690.95" x2="838.95" y1="584.8338" y2="584.8338"/><ellipse cx="700.95" cy="598.4822" fill="#000000" rx="3" ry="3" style="stroke:#000000;stroke-width:1.0;"/><text fill="#000000" font-family="sans-serif" font-size="14" lengthAdjust="spacing" textLength="72.0645" x="709.95" y="601.8289">id: integer</text><line style="stroke:#181818;stroke-width:1.0;" x1="690.95" x2="838.95" y1="609.1306" y2="609.1306"/><ellipse cx="700.95" cy="622.7791" fill="#000000" rx="3" ry="3" style="stroke:#000000;stroke-width:1.0;"/><text fill="#000000" font-family="sans-serif" font-size="14" lengthAdjust="spacing" textLength="89.0586" x="709.95" y="626.1257">name: string</text></g><!--class school_user--><g id="elem_school_user"><rect codeLine="68" fill="#F1F1F1" height="74.8906" id="school_user" rx="2.5" ry="2.5" style="stroke:#181818;stroke-width:0.5;" width="150" x="695.95" y="325.8569"/><text fill="#000000" font-family="sans-serif" font-size="14" lengthAdjust="spacing" textLength="82.4209" x="729.7396" y="343.852">school_user</text><line style="stroke:#181818;stroke-width:0.5;" x1="696.95" x2="844.95" y1="352.1538" y2="352.1538"/><ellipse cx="706.95" cy="365.8022" fill="#000000" rx="3" ry="3" style="stroke:#000000;stroke-width:1.0;"/><text fill="#000000" font-family="sans-serif" font-size="14" lengthAdjust="spacing" textLength="123.9492" x="715.95" y="369.1489">school_id: integer</text><ellipse cx="706.95" cy="382.0991" fill="#000000" rx="3" ry="3" style="stroke:#000000;stroke-width:1.0;"/><text fill="#000000" font-family="sans-serif" font-size="14" lengthAdjust="spacing" textLength="109.6006" x="715.95" y="385.4457">user_id: integer</text><line style="stroke:#181818;stroke-width:1.0;" x1="696.95" x2="844.95" y1="392.7475" y2="392.7475"/></g><!--class signup--><g id="elem_signup"><rect codeLine="73" fill="#F1F1F1" height="107.4844" id="signup" rx="2.5" ry="2.5" style="stroke:#181818;stroke-width:0.5;" width="190.6367" x="868.64" y="68.7469"/><text fill="#000000" font-family="sans-serif" font-size="14" lengthAdjust="spacing" textLength="46.7031" x="940.6068" y="86.742">signup</text><line style="stroke:#181818;stroke-width:0.5;" x1="869.64" x2="1058.2767" y1="95.0438" y2="95.0438"/><ellipse cx="879.64" cy="108.6922" fill="#000000" rx="3" ry="3" style="stroke:#000000;stroke-width:1.0;"/><text fill="#000000" font-family="sans-serif" font-size="14" lengthAdjust="spacing" textLength="72.0645" x="888.64" y="112.0389">id: integer</text><line style="stroke:#181818;stroke-width:1.0;" x1="869.64" x2="1058.2767" y1="119.3406" y2="119.3406"/><ellipse cx="879.64" cy="132.9891" fill="#000000" rx="3" ry="3" style="stroke:#000000;stroke-width:1.0;"/><text fill="#000000" font-family="sans-serif" font-size="14" lengthAdjust="spacing" textLength="112.3008" x="888.64" y="136.3357">child_id: integer</text><ellipse cx="879.64" cy="149.2859" fill="#000000" rx="3" ry="3" style="stroke:#000000;stroke-width:1.0;"/><text fill="#000000" font-family="sans-serif" font-size="14" lengthAdjust="spacing" textLength="130.6689" x="888.64" y="152.6326">activity_id: integer</text><text fill="#000000" font-family="sans-serif" font-size="14" lengthAdjust="spacing" textLength="164.6367" x="888.64" y="168.9295">signed_up_at: datetime</text></g><!--class sponsor--><g id="elem_sponsor"><rect codeLine="80" fill="#F1F1F1" height="107.4844" id="sponsor" rx="2.5" ry="2.5" style="stroke:#181818;stroke-width:0.5;" width="150" x="33.95" y="309.5669"/><text fill="#000000" font-family="sans-serif" font-size="14" lengthAdjust="spacing" textLength="55.2344" x="81.3328" y="327.562">sponsor</text><line style="stroke:#181818;stroke-width:0.5;" x1="34.95" x2="182.95" y1="335.8638" y2="335.8638"/><ellipse cx="44.95" cy="349.5122" fill="#000000" rx="3" ry="3" style="stroke:#000000;stroke-width:1.0;"/><text fill="#000000" font-family="sans-serif" font-size="14" lengthAdjust="spacing" textLength="72.0645" x="53.95" y="352.8589">id: integer</text><line style="stroke:#181818;stroke-width:1.0;" x1="34.95" x2="182.95" y1="360.1606" y2="360.1606"/><ellipse cx="44.95" cy="373.8091" fill="#000000" rx="3" ry="3" style="stroke:#000000;stroke-width:1.0;"/><text fill="#000000" font-family="sans-serif" font-size="14" lengthAdjust="spacing" textLength="89.0586" x="53.95" y="377.1557">name: string</text><ellipse cx="44.95" cy="390.1059" fill="#000000" rx="3" ry="3" style="stroke:#000000;stroke-width:1.0;"/><text fill="#000000" font-family="sans-serif" font-size="14" lengthAdjust="spacing" textLength="92.9619" x="53.95" y="393.4526">image: string</text><ellipse cx="44.95" cy="406.4028" fill="#000000" rx="3" ry="3" style="stroke:#000000;stroke-width:1.0;"/><text fill="#000000" font-family="sans-serif" font-size="14" lengthAdjust="spacing" textLength="109.8877" x="53.95" y="409.7495">visible: boolean</text></g><!--class target_group--><g id="elem_target_group"><rect codeLine="87" fill="#F1F1F1" height="74.8906" id="target_group" rx="2.5" ry="2.5" style="stroke:#181818;stroke-width:0.5;" width="150" x="493.95" y="558.5369"/><text fill="#000000" font-family="sans-serif" font-size="14" lengthAdjust="spacing" textLength="90.7813" x="523.5594" y="576.532">target_group</text><line style="stroke:#181818;stroke-width:0.5;" x1="494.95" x2="642.95" y1="584.8338" y2="584.8338"/><ellipse cx="504.95" cy="598.4822" fill="#000000" rx="3" ry="3" style="stroke:#000000;stroke-width:1.0;"/><text fill="#000000" font-family="sans-serif" font-size="14" lengthAdjust="spacing" textLength="72.0645" x="513.95" y="601.8289">id: integer</text><line style="stroke:#181818;stroke-width:1.0;" x1="494.95" x2="642.95" y1="609.1306" y2="609.1306"/><ellipse cx="504.95" cy="622.7791" fill="#000000" rx="3" ry="3" style="stroke:#000000;stroke-width:1.0;"/><text fill="#000000" font-family="sans-serif" font-size="14" lengthAdjust="spacing" textLength="89.0586" x="513.95" y="626.1257">name: string</text></g><!--class user--><g id="elem_user"><rect codeLine="92" fill="#F1F1F1" height="140.0781" id="user" rx="2.5" ry="2.5" style="stroke:#181818;stroke-width:0.5;" width="162.1855" x="910.86" y="525.9369"/><text fill="#000000" font-family="sans-serif" font-size="14" lengthAdjust="spacing" textLength="30.5361" x="976.6847" y="543.932">user</text><line style="stroke:#181818;stroke-width:0.5;" x1="911.86" x2="1072.0455" y1="552.2338" y2="552.2338"/><ellipse cx="921.86" cy="565.8822" fill="#000000" rx="3" ry="3" style="stroke:#000000;stroke-width:1.0;"/><text fill="#000000" font-family="sans-serif" font-size="14" lengthAdjust="spacing" textLength="72.0645" x="930.86" y="569.2289">id: integer</text><line style="stroke:#181818;stroke-width:1.0;" x1="911.86" x2="1072.0455" y1="576.5306" y2="576.5306"/><ellipse cx="921.86" cy="590.1791" fill="#000000" rx="3" ry="3" style="stroke:#000000;stroke-width:1.0;"/><text fill="#000000" font-family="sans-serif" font-size="14" lengthAdjust="spacing" textLength="87.9648" x="930.86" y="593.5257">email: string</text><ellipse cx="921.86" cy="606.4759" fill="#000000" rx="3" ry="3" style="stroke:#000000;stroke-width:1.0;"/><text fill="#000000" font-family="sans-serif" font-size="14" lengthAdjust="spacing" textLength="71.9072" x="930.86" y="609.8226">roles: json</text><ellipse cx="921.86" cy="622.7728" fill="#000000" rx="3" ry="3" style="stroke:#000000;stroke-width:1.0;"/><text fill="#000000" font-family="sans-serif" font-size="14" lengthAdjust="spacing" textLength="116.0674" x="930.86" y="626.1195">password: string</text><ellipse cx="921.86" cy="639.0697" fill="#000000" rx="3" ry="3" style="stroke:#000000;stroke-width:1.0;"/><text fill="#000000" font-family="sans-serif" font-size="14" lengthAdjust="spacing" textLength="136.1855" x="930.86" y="642.4164">is_verified: boolean</text><ellipse cx="921.86" cy="655.3666" fill="#000000" rx="3" ry="3" style="stroke:#000000;stroke-width:1.0;"/><text fill="#000000" font-family="sans-serif" font-size="14" lengthAdjust="spacing" textLength="89.0586" x="930.86" y="658.7132">name: string</text></g><!--link activity to school--><g id="link_activity_school"><path codeLine="101" d="M652.42,484.3969 C652.42,546.6369 652.42,596.0169 652.42,596.0169 C652.42,596.0169 654.08,596.0169 674.58,596.0169 " fill="none" id="activity-school" style="stroke:#181818;stroke-width:1.0;"/><line style="stroke:#181818;stroke-width:1.0;" x1="652.42" x2="646.42" y1="474.3969" y2="466.3969"/><line style="stroke:#181818;stroke-width:1.0;" x1="652.42" x2="658.42" y1="474.3969" y2="466.3969"/><line style="stroke:#181818;stroke-width:1.0;" x1="652.42" x2="652.42" y1="474.3969" y2="466.3969"/><ellipse cx="652.42" cy="480.3969" fill="none" rx="4" ry="4" style="stroke:#181818;stroke-width:1.0;"/><line style="stroke:#181818;stroke-width:1.0;" x1="678.58" x2="689.58" y1="596.0169" y2="596.0169"/><ellipse cx="678.58" cy="596.0169" fill="none" rx="4" ry="4" style="stroke:#181818;stroke-width:1.0;"/><line style="stroke:#181818;stroke-width:1.0;" x1="685.58" x2="685.58" y1="592.0169" y2="600.0169"/></g><!--link activity to category--><g id="link_activity_category"><path codeLine="102" d="M479.49,484.3969 C479.49,546.6369 479.49,596.0169 479.49,596.0169 C479.49,596.0169 486.07,596.0169 474.23,596.0169 " fill="none" id="activity-category" style="stroke:#181818;stroke-width:1.0;"/><line style="stroke:#181818;stroke-width:1.0;" x1="479.49" x2="473.49" y1="474.3969" y2="466.3969"/><line style="stroke:#181818;stroke-width:1.0;" x1="479.49" x2="485.49" y1="474.3969" y2="466.3969"/><line style="stroke:#181818;stroke-width:1.0;" x1="479.49" x2="479.49" y1="474.3969" y2="466.3969"/><ellipse cx="479.49" cy="480.3969" fill="none" rx="4" ry="4" style="stroke:#181818;stroke-width:1.0;"/><line style="stroke:#181818;stroke-width:1.0;" x1="470.23" x2="459.23" y1="596.0169" y2="596.0169"/><ellipse cx="470.23" cy="596.0169" fill="none" rx="4" ry="4" style="stroke:#181818;stroke-width:1.0;"/><line style="stroke:#181818;stroke-width:1.0;" x1="463.23" x2="463.23" y1="600.0169" y2="592.0169"/></g><!--link activity to target_group--><g id="link_activity_target_group"><path codeLine="103" d="M568.95,484.3769 C568.95,517.0769 568.95,518.1869 568.95,543.2069 " fill="none" id="activity-target_group" style="stroke:#181818;stroke-width:1.0;"/><line style="stroke:#181818;stroke-width:1.0;" x1="568.95" x2="562.95" y1="474.3769" y2="466.3769"/><line style="stroke:#181818;stroke-width:1.0;" x1="568.95" x2="574.95" y1="474.3769" y2="466.3769"/><line style="stroke:#181818;stroke-width:1.0;" x1="568.95" x2="568.95" y1="474.3769" y2="466.3769"/><ellipse cx="568.95" cy="480.3769" fill="none" rx="4" ry="4" style="stroke:#181818;stroke-width:1.0;"/><line style="stroke:#181818;stroke-width:1.0;" x1="568.95" x2="568.95" y1="547.2069" y2="558.2069"/><ellipse cx="568.95" cy="547.2069" fill="none" rx="4" ry="4" style="stroke:#181818;stroke-width:1.0;"/><line style="stroke:#181818;stroke-width:1.0;" x1="572.95" x2="564.95" y1="554.2069" y2="554.2069"/></g><!--link activity_user to activity--><g id="link_activity_user_activity"><path codeLine="104" d="M604.75,178.3769 C604.75,205.3369 604.75,216.9169 604.75,252.4269 " fill="none" id="activity_user-activity" style="stroke:#181818;stroke-width:1.0;"/><line style="stroke:#181818;stroke-width:1.0;" x1="604.75" x2="598.75" y1="168.3769" y2="160.3769"/><line style="stroke:#181818;stroke-width:1.0;" x1="604.75" x2="610.75" y1="168.3769" y2="160.3769"/><line style="stroke:#181818;stroke-width:1.0;" x1="604.75" x2="604.75" y1="168.3769" y2="160.3769"/><ellipse cx="604.75" cy="174.3769" fill="none" rx="4" ry="4" style="stroke:#181818;stroke-width:1.0;"/><line style="stroke:#181818;stroke-width:1.0;" x1="608.75" x2="600.75" y1="256.4269" y2="256.4269"/><line style="stroke:#181818;stroke-width:1.0;" x1="608.75" x2="600.75" y1="253.4269" y2="253.4269"/><line style="stroke:#181818;stroke-width:1.0;" x1="604.75" x2="604.75" y1="252.4269" y2="260.4269"/></g><!--link activity_user to user--><g id="link_activity_user_user"><path codeLine="105" d="M675.42,178.1769 C675.42,281.3969 675.42,543.0169 675.42,543.0169 C675.42,543.0169 808.65,543.0169 902.44,543.0169 " fill="none" id="activity_user-user" style="stroke:#181818;stroke-width:1.0;"/><line style="stroke:#181818;stroke-width:1.0;" x1="675.42" x2="669.42" y1="168.1769" y2="160.1769"/><line style="stroke:#181818;stroke-width:1.0;" x1="675.42" x2="681.42" y1="168.1769" y2="160.1769"/><line style="stroke:#181818;stroke-width:1.0;" x1="675.42" x2="675.42" y1="168.1769" y2="160.1769"/><ellipse cx="675.42" cy="174.1769" fill="none" rx="4" ry="4" style="stroke:#181818;stroke-width:1.0;"/><line style="stroke:#181818;stroke-width:1.0;" x1="906.44" x2="906.44" y1="539.0169" y2="547.0169"/><line style="stroke:#181818;stroke-width:1.0;" x1="903.44" x2="903.44" y1="539.0169" y2="547.0169"/><line style="stroke:#181818;stroke-width:1.0;" x1="902.44" x2="910.44" y1="543.0169" y2="543.0169"/></g><!--link child to user--><g id="link_child_user"><path codeLine="106" d="M992.56,443.6569 C992.56,474.4869 992.56,485.8069 992.56,517.6469 " fill="none" id="child-user" style="stroke:#181818;stroke-width:1.0;"/><line style="stroke:#181818;stroke-width:1.0;" x1="992.56" x2="986.56" y1="433.6569" y2="425.6569"/><line style="stroke:#181818;stroke-width:1.0;" x1="992.56" x2="998.56" y1="433.6569" y2="425.6569"/><line style="stroke:#181818;stroke-width:1.0;" x1="992.56" x2="992.56" y1="433.6569" y2="425.6569"/><ellipse cx="992.56" cy="439.6569" fill="none" rx="4" ry="4" style="stroke:#181818;stroke-width:1.0;"/><line style="stroke:#181818;stroke-width:1.0;" x1="996.56" x2="988.56" y1="521.6469" y2="521.6469"/><line style="stroke:#181818;stroke-width:1.0;" x1="996.56" x2="988.56" y1="518.6469" y2="518.6469"/><line style="stroke:#181818;stroke-width:1.0;" x1="992.56" x2="992.56" y1="517.6469" y2="525.6469"/></g><!--link reset_password_request to user--><g id="link_reset_password_request_user"><path codeLine="107" d="M1120.31,430.0169 C1065.38,430.0169 1032.81,430.0169 1032.81,430.0169 C1032.81,430.0169 1032.81,472.3669 1032.81,517.5969 " fill="none" id="reset_password_request-user" style="stroke:#181818;stroke-width:1.0;"/><line style="stroke:#181818;stroke-width:1.0;" x1="1130.31" x2="1138.31" y1="430.0169" y2="424.0169"/><line style="stroke:#181818;stroke-width:1.0;" x1="1130.31" x2="1138.31" y1="430.0169" y2="436.0169"/><line style="stroke:#181818;stroke-width:1.0;" x1="1130.31" x2="1138.31" y1="430.0169" y2="430.0169"/><ellipse cx="1124.31" cy="430.0169" fill="none" rx="4" ry="4" style="stroke:#181818;stroke-width:1.0;"/><line style="stroke:#181818;stroke-width:1.0;" x1="1036.81" x2="1028.81" y1="521.5969" y2="521.5969"/><line style="stroke:#181818;stroke-width:1.0;" x1="1036.81" x2="1028.81" y1="518.5969" y2="518.5969"/><line style="stroke:#181818;stroke-width:1.0;" x1="1032.81" x2="1032.81" y1="517.5969" y2="525.5969"/></g><!--link school_user to school--><g id="link_school_user_school"><path codeLine="108" d="M767.95,419.2069 C767.95,462.4769 767.95,506.8369 767.95,550.0969 " fill="none" id="school_user-school" style="stroke:#181818;stroke-width:1.0;"/><line style="stroke:#181818;stroke-width:1.0;" x1="767.95" x2="761.95" y1="409.2069" y2="401.2069"/><line style="stroke:#181818;stroke-width:1.0;" x1="767.95" x2="773.95" y1="409.2069" y2="401.2069"/><line style="stroke:#181818;stroke-width:1.0;" x1="767.95" x2="767.95" y1="409.2069" y2="401.2069"/><ellipse cx="767.95" cy="415.2069" fill="none" rx="4" ry="4" style="stroke:#181818;stroke-width:1.0;"/><line style="stroke:#181818;stroke-width:1.0;" x1="771.95" x2="763.95" y1="554.0969" y2="554.0969"/><line style="stroke:#181818;stroke-width:1.0;" x1="771.95" x2="763.95" y1="551.0969" y2="551.0969"/><line style="stroke:#181818;stroke-width:1.0;" x1="767.95" x2="767.95" y1="550.0969" y2="558.0969"/></g><!--link school_user to user--><g id="link_school_user_user"><path codeLine="109" d="M864.1,364.0169 C905.91,364.0169 931.59,364.0169 931.59,364.0169 C931.59,364.0169 931.59,449.4769 931.59,517.7569 " fill="none" id="school_user-user" style="stroke:#181818;stroke-width:1.0;"/><line style="stroke:#181818;stroke-width:1.0;" x1="854.1" x2="846.1" y1="364.0169" y2="370.0169"/><line style="stroke:#181818;stroke-width:1.0;" x1="854.1" x2="846.1" y1="364.0169" y2="358.0169"/><line style="stroke:#181818;stroke-width:1.0;" x1="854.1" x2="846.1" y1="364.0169" y2="364.0169"/><ellipse cx="860.1" cy="364.0169" fill="none" rx="4" ry="4" style="stroke:#181818;stroke-width:1.0;"/><line style="stroke:#181818;stroke-width:1.0;" x1="935.59" x2="927.59" y1="521.7569" y2="521.7569"/><line style="stroke:#181818;stroke-width:1.0;" x1="935.59" x2="927.59" y1="518.7569" y2="518.7569"/><line style="stroke:#181818;stroke-width:1.0;" x1="931.59" x2="931.59" y1="517.7569" y2="525.7569"/></g><!--link signup to activity--><g id="link_signup_activity"><path codeLine="110" d="M889.75,194.5369 C889.75,239.0969 889.75,277.0169 889.75,277.0169 C889.75,277.0169 765.26,277.0169 669,277.0169 " fill="none" id="signup-activity" style="stroke:#181818;stroke-width:1.0;"/><line style="stroke:#181818;stroke-width:1.0;" x1="889.75" x2="883.75" y1="184.5369" y2="176.5369"/><line style="stroke:#181818;stroke-width:1.0;" x1="889.75" x2="895.75" y1="184.5369" y2="176.5369"/><line style="stroke:#181818;stroke-width:1.0;" x1="889.75" x2="889.75" y1="184.5369" y2="176.5369"/><ellipse cx="889.75" cy="190.5369" fill="none" rx="4" ry="4" style="stroke:#181818;stroke-width:1.0;"/><line style="stroke:#181818;stroke-width:1.0;" x1="665" x2="665" y1="281.0169" y2="273.0169"/><line style="stroke:#181818;stroke-width:1.0;" x1="668" x2="668" y1="281.0169" y2="273.0169"/><line style="stroke:#181818;stroke-width:1.0;" x1="669" x2="661" y1="277.0169" y2="277.0169"/></g><!--link signup to child--><g id="link_signup_child"><path codeLine="111" d="M1005.8,194.5269 C1005.8,231.4169 1005.8,254.3869 1005.8,292.9369 " fill="none" id="signup-child" style="stroke:#181818;stroke-width:1.0;"/><line style="stroke:#181818;stroke-width:1.0;" x1="1005.8" x2="999.8" y1="184.5269" y2="176.5269"/><line style="stroke:#181818;stroke-width:1.0;" x1="1005.8" x2="1011.8" y1="184.5269" y2="176.5269"/><line style="stroke:#181818;stroke-width:1.0;" x1="1005.8" x2="1005.8" y1="184.5269" y2="176.5269"/><ellipse cx="1005.8" cy="190.5269" fill="none" rx="4" ry="4" style="stroke:#181818;stroke-width:1.0;"/><line style="stroke:#181818;stroke-width:1.0;" x1="1009.8" x2="1001.8" y1="296.9369" y2="296.9369"/><line style="stroke:#181818;stroke-width:1.0;" x1="1009.8" x2="1001.8" y1="293.9369" y2="293.9369"/><line style="stroke:#181818;stroke-width:1.0;" x1="1005.8" x2="1005.8" y1="292.9369" y2="300.9369"/></g><!--SRC=[bLGzZzim3DtzAzGrG81sw9BrrXPT2dGK58crsRC-AibfZER- -r6sJvO_alQMH29byZtoaGqgOA1Tx9a6VGOVgYQP97hPGXMUqJZXXMPVqJor8eGVg6B3Fdt-MFY-e87llGFspSV6LX5Z2qmuLts83MXWt5W3l093dfu96V6I3d-h0qDrOcWYrE2hux5YKj3P-fwN3XQ5ho7osjlEBJr1DjQs2zk16Q7Xn4BqQ6gwAWZIeujeJM55BUh5Ayfy6duZQY23yoYXIDLQ0bV6U5apubq0Fz3AbYMmvEShoZdA6_MzkgmupTyqsAhz3wWrzEXnPMJgQ74lAv9pA2kJ1RZ6sWyLu1VI2Vs78VDqoH-cDi8LP1T1SH6Bcaxc527TPs0vbuOGm929fnF12PdS6MjwFd8xMzMVM8Hhf4i3GX64VF_TGGTypTI3MEFXg7KNnRbDtHONWMqwttj2CcgHkDuFabbu2AHMHxNzOxtY7WXIYFjjsaZYm0Aq8AFr1Vn6X8OIH_iCfOQdo8zumTKXuVadvd6GtgEzQVIovdT7yQ7Y0zQcS_iv1sMlWkrErH25Aa2ROI6sEOiZfLh_7zIsI-620QbCf3wY1iBCKSkLz9wgvN9jteCc1PRDfOoawb_1cc6SHpMLO4CQHFo9e6Q0cxnvtRxOuz7UfZPjp6_RP-CeYLRBJPTUt6wvBVlUTAx6FLLQxin8-QGKs6IVmEzunYz6GQrnBSq3bbS0]--></g></svg>